<svg xmlns="http://www.w3.org/2000/svg" xmlns:xlink="http://www.w3.org/1999/xlink" width="32" height="32" viewBox="0 0 32 32"><defs><clipPath id="a"><rect width="32" height="32" fill="none"/></clipPath></defs><g clip-path="url(#a)"><g transform="translate(1.333 6.667)"><path d="M6.882,12.775A7.067,7.067,0,0,1,1.82,10.689,6.285,6.285,0,0,1,.1,7.373V7.363A6.573,6.573,0,0,1,0,6.425,6.26,6.26,0,0,1,2.276,1.64,7.1,7.1,0,0,1,8.9.314a6.457,6.457,0,0,1,2.427,1.232A6.067,6.067,0,0,1,13.6,5.1l0,.025a10.817,10.817,0,0,1,.1,1.253,7.714,7.714,0,0,1-.254,1.848,6.248,6.248,0,0,1-1.971,2.891A7.086,7.086,0,0,1,6.882,12.775Zm0-9.572A3.29,3.29,0,0,0,3.489,6.377,3.291,3.291,0,0,0,6.877,9.552a3.291,3.291,0,0,0,3.389-3.175A3.291,3.291,0,0,0,6.877,3.2Z" transform="translate(0 4.945)" fill="#4c4c4c" stroke="rgba(255,0,0,0)" stroke-miterlimit="10" stroke-width="1"/><path d="M345.34,371.052h-.264c-3.6-.019-5.971-.72-6.526-1.652l0-.005v2.843c0,1.09,2.984,1.943,6.726,1.943s6.777-.853,6.777-1.943V369.11C352.051,370.141,348.981,371.033,345.34,371.052Z" transform="translate(-322.717 -355.513)" fill="#4c4c4c" stroke="rgba(255,0,0,0)" stroke-width="1" opacity="0.6"/><path d="M345.223,337.521c-3.59,0-6.27-.758-6.676-1.705h0v3.174c.556.947,2.984,1.658,6.676,1.658s6.828-.9,6.828-1.942v-3.032C351.8,336.715,348.814,337.521,345.223,337.521Z" transform="translate(-322.717 -325.108)" fill="#4c4c4c" stroke="rgba(255,0,0,0)" stroke-width="1" opacity="0.5"/><path d="M351.579,314.77c-.253,1.042-3.237,1.848-6.828,1.848s-6.271-.758-6.676-1.705a.4.4,0,0,1-.051-.237v-.237c.354-.948,3.186-1.706,6.625-1.753h.1a18.19,18.19,0,0,1,5.31.758c.961.332,1.517.758,1.517,1.232v.095Z" transform="translate(-322.246 -304.204)" fill="#4c4c4c" stroke="rgba(255,0,0,0)" stroke-width="1"/><path d="M279.059,221.489c-.607.9-3.591,1.563-6.878,1.563s-6.524-.805-6.726-1.8a.167.167,0,0,1-.051-.142c0-1.042,3.035-1.942,6.777-1.942,2.883,0,5.513.521,6.524,1.279a.8.8,0,0,1,.455.663A.486.486,0,0,1,279.059,221.489Z" transform="translate(-256.655 -219.168)" fill="#4c4c4c" stroke="rgba(255,0,0,0)" stroke-width="1"/><path d="M273.125,245.351c-3.132,0-6.217-.731-6.676-1.661v3.02l.051.015a6.45,6.45,0,0,1,2.428,1.232c.04.031.079.063.118.1a18.786,18.786,0,0,0,4.08.426c3.591,0,6.676-.9,6.878-1.942v-2.748C279.4,244.688,276.412,245.351,273.125,245.351Z" transform="translate(-257.599 -241.466)" fill="#4c4c4c" stroke="rgba(255,0,0,0)" stroke-width="1" opacity="0.4"/><path d="M304.094,275.358a2.481,2.481,0,0,1-1,.705,7.233,7.233,0,0,1-.806.3,11.979,11.979,0,0,1-1.237.309c-.36.071-.741.132-1.14.183q-.3.038-.611.067c-.622.058-1.277.09-1.951.09a18.778,18.778,0,0,1-4.08-.426,6.075,6.075,0,0,1,2.158,3.458v0l1.922.092.253.095c.354-.947,3.186-1.706,6.625-1.753v-3.411A.738.738,0,0,1,304.094,275.358Z" transform="translate(-281.82 -270)" fill="#4c4c4c" stroke="rgba(255,0,0,0)" stroke-width="1" opacity="0.5"/><path d="M315.986,330.377v-.237c.006-.015.014-.031.021-.046-.007.015-.015.03-.021.046l-.253-.095-1.921-.092a10.909,10.909,0,0,1,.1,1.277,7.737,7.737,0,0,1-.253,1.848c-.011.035-.024.069-.036.1l2.109.086h.3v-2.653h0v0A.4.4,0,0,1,315.986,330.377Z" transform="translate(-300.207 -319.907)" fill="#4c4c4c" stroke="rgba(255,0,0,0)" stroke-width="1" opacity="0.6"/><path d="M298.319,365.636l-2.109-.086a6.285,6.285,0,0,1-1.866,2.725,20.014,20.014,0,0,0,3.925.393h.354v-2.511h0v-.521Z" transform="translate(-282.793 -352.276)" fill="#4c4c4c" stroke="rgba(255,0,0,0)" stroke-width="1" opacity="0.7"/><path d="M214.458,309.029a3.181,3.181,0,1,1-3.388,3.174h0A3.287,3.287,0,0,1,214.458,309.029Z" transform="translate(-207.58 -300.88)" fill="#4c4c4c" stroke="rgba(255,0,0,0)" stroke-width="1" opacity="0.4"/></g></g></svg>