<svg xmlns="http://www.w3.org/2000/svg" xmlns:xlink="http://www.w3.org/1999/xlink" width="32" height="32" viewBox="0 0 32 32"><defs><clipPath id="a"><rect width="32" height="32" fill="none"/></clipPath></defs><g clip-path="url(#a)"><g transform="translate(4 2.667)"><path d="M6.4,6.25H0L3.2,0,6.4,6.247Z" transform="translate(0 6.302)" fill="#4c4c4c"/><path d="M242.6.781V2.4a.8.8,0,0,1-1.6,0V.781a.8.8,0,0,1,1.6,0Z" transform="translate(-229.8)" fill="#4c4c4c" opacity="0.4"/><path d="M147.468,43.2a.807.807,0,0,1-.566-.229l-1.131-1.1a.768.768,0,0,1,0-1.1.813.813,0,0,1,1.131,0l1.131,1.1a.768.768,0,0,1,0,1.1A.807.807,0,0,1,147.468,43.2Z" transform="translate(-139.428 -38.425)" fill="#4c4c4c" opacity="0.4"/><path d="M316.054,43.2a.807.807,0,0,1-.566-.229.768.768,0,0,1,0-1.1l1.131-1.1a.813.813,0,0,1,1.131,0,.768.768,0,0,1,0,1.1l-1.131,1.1A.807.807,0,0,1,316.054,43.2Z" transform="translate(-300.093 -38.425)" fill="#4c4c4c" opacity="0.4"/><path d="M3.2,6.25v0L0,0H8.8L3.2,6.248Z" transform="translate(3.2 6.302)" fill="#4c4c4c" opacity="0.8"/><path d="M5.6,6.25H0L5.6,0V6.25Z" transform="translate(6.4 6.302)" fill="#4c4c4c" opacity="0.6"/><path d="M261.6,127.25H256V121Z" transform="translate(-244 -114.698)" fill="#4c4c4c" opacity="0.7"/><path d="M5.6,6.25l0,0L0,0H8.8L5.6,6.248Z" transform="translate(12.001 6.302)" fill="#4c4c4c" opacity="0.8"/><path d="M6.4,6.25H0L3.2,0,6.4,6.247Z" transform="translate(17.6 6.302)" fill="#4c4c4c"/><path d="M31,226.467l12,14.115-5.6-14.115Z" transform="translate(-31 -213.915)" fill="#4c4c4c" opacity="0.7"/><path d="M5.6,14.106,0,0H5.6V14.105Z" transform="translate(6.4 12.552)" fill="#4c4c4c" opacity="0.8"/><path d="M0,14.107H0V0H5.6Z" transform="translate(12.001 12.552)" fill="#4c4c4c"/><path d="M0,14.107l0,0L5.6,0h6.4Z" transform="translate(12.004 12.552)" fill="#4c4c4c" opacity="0.7"/></g></g></svg>