<svg xmlns="http://www.w3.org/2000/svg" xmlns:xlink="http://www.w3.org/1999/xlink" width="32" height="32" viewBox="0 0 32 32"><defs><clipPath id="a"><rect width="32" height="32" fill="none"/></clipPath></defs><g clip-path="url(#a)"><g transform="translate(5.333 2.667)"><g transform="translate(0)"><path d="M5.969,26.667h0a.928.928,0,0,1-.73-.364.852.852,0,0,1-.133-.764l2.374-8.377a1.417,1.417,0,0,0,.028-.671,1.442,1.442,0,0,0-.753-1,1.417,1.417,0,0,0-.653-.156H1.434a1.453,1.453,0,0,1-.37-.047,1.408,1.408,0,0,1-.329-.133,1.446,1.446,0,0,1-.728-1.114,1.407,1.407,0,0,1,.01-.355,1.452,1.452,0,0,1,.105-.358L5.487,1.1A1.834,1.834,0,0,1,7.166,0h3.907L6.459,10.855a1.943,1.943,0,0,0-.135.478,1.884,1.884,0,0,0-.009.473,1.935,1.935,0,0,0,.978,1.478,1.886,1.886,0,0,0,.439.176,1.944,1.944,0,0,0,.492.063,3.306,3.306,0,0,1,.906.125,3.173,3.173,0,0,1,.79.347A3.29,3.29,0,0,1,11.478,16.8a3.174,3.174,0,0,1-.124.854,3.306,3.306,0,0,1-.374.835l-5.1,8.17c.029,0,.058,0,.088,0a.83.83,0,0,0,.342-.072.841.841,0,0,0,.129-.072.828.828,0,0,1-.471.145Z" transform="translate(0 0)" fill="#4c4c4c"/><path d="M189,26.323l9.039-11.575a2.021,2.021,0,0,0-1.593-3.266,1.79,1.79,0,0,1-1.64-2.51l2.807-6.4A1.834,1.834,0,0,0,195.934,0h-2.511l-4.614,10.855a1.918,1.918,0,0,0,1.765,2.668,3.249,3.249,0,0,1,2.756,4.969l-5.1,8.17A.848.848,0,0,0,189,26.323Z" transform="translate(-182.35 0)" fill="#4c4c4c" opacity="0.92"/></g><g transform="translate(13.768 5.014)" opacity="0.2"><path d="M3.094,11.124a.564.564,0,0,1-.11-.046.537.537,0,0,1-.153-.124.517.517,0,0,1-.117-.4l.364-3.316A1.07,1.07,0,0,0,2.2,6.067L.729,5.8a.872.872,0,0,1-.4-.182A.891.891,0,0,1,0,4.878.872.872,0,0,1,.14,4.46L2.828.248a.536.536,0,0,1,.2-.189A.516.516,0,0,1,3.27,0a.564.564,0,0,1,.311.095A.52.52,0,0,1,3.739.26.518.518,0,0,0,3.671.171.544.544,0,0,0,3.5.05L2.277,3.842A1.258,1.258,0,0,0,3,5.394l.7.285a1.258,1.258,0,0,1,.714,1.583L3.066,11.114l.028.009Z" transform="translate(0 0)" fill="#4c4c4c"/><path d="M396.533,49.5l-1.511-.294a1.07,1.07,0,0,1-.859-1.167l.359-3.27a.519.519,0,0,0-.308-.543l-1.223,3.791a1.258,1.258,0,0,0,.725,1.552l.7.285a1.258,1.258,0,0,1,.714,1.583l-1.353,3.854a.521.521,0,0,0,.629-.216l2.7-4.231A.883.883,0,0,0,396.533,49.5Z" transform="translate(-390.713 -44.175)" fill="#4c4c4c" opacity="0.88"/></g></g></g></svg>